Patient4_TMGait_0pt5_01_left_43_EMG.mot
version=1
nRows=13
nColumns=33
inDegrees=no
endheader
time	1LAddLong	2LGlutMax	3LGlutMed	4LIliopsoas	5LSemiMemb	6LBicFemLong	7LRecFem	8LVastMed	9LVastLat	10LGasMed	11LTibAnt	12lTibPost	13LPeroneusLong	14LSol	15LExtDigLong	16LFlexDigLong	17RAddLong	18RGlutMax	19RGlutMed	20RIliopsoas	21RSemiMemb	22RBicFemLong	23RRecFem	24RVastMed	25RVastLat	26RGasMed	27RTibAnt	28RTibPost	29RPeroneusLong	30RSol	31RExtDigLong	32RFlexDigLong
58.16	0.001526	-0.09903	-0.002747	0.015259	0.009003	0.006104	0.17944	0.004272	0.028687	0.016479	0.009308	-0.002289	-0.037689	0.18768	0.19699	0.020447	-0.01236	-0.032806	0.12344	0.050049	-0.27191	-0.16693	0.081329	0.19119	0.035248	-0.028534	0.13901	-0.007477	0.37552	0.018158	-0.001373	-0.009155
58.161	0.007477	-0.078278	-0.027313	0.011902	-0.003204	0.005646	0.17746	0.000153	0.023041	0.025177	0.06424	0.000763	-0.036469	0.1648	-0.30212	0.010681	-0.011749	-0.032654	0.13168	0.002899	-0.35385	-0.021515	0.080109	0.088348	0.067596	-0.0354	-0.003052	-0.008698	0.26703	0.064697	-0.001526	-0.010071
58.162	0.001068	-0.070953	-0.04364	0.020905	-0.006714	0.01709	0.14313	0.000153	0.04364	0.042877	0.088806	0.000763	-0.061951	0.21545	-0.073547	0.00824	-0.017242	-0.000763	0.11261	-0.080261	-0.17761	-0.13123	0.10819	0.00412	0.05127	-0.042114	-0.16419	-0.008392	-0.076447	0.088348	-0.001678	-0.012512
58.163	0.002899	-0.078888	-0.036774	0.007935	-0.00061	-0.005493	0.12146	0.005493	0.033112	0.058441	0.10651	0.002136	-0.070953	0.18509	-0.00946	0.014191	-0.014954	0.001678	0.15243	-0.088806	0.10147	-0.16785	0.066071	-0.007172	0.057983	-0.046997	-0.080719	-0.013428	-0.057526	0.037842	-0.002136	-0.020294
58.164	0.000305	-0.091553	-0.05127	-0.001831	-0.005035	-0.011292	0.14023	0.003815	0.03891	0.048676	0.14511	0.005035	-0.052032	0.030365	0.016632	-0.001984	-0.022278	0.051727	0.11536	-0.005951	0.20447	-0.12848	0.068207	0.067139	0.028687	-0.043793	-0.12253	-0.007629	0.23666	-0.005035	0.001831	-0.015411
58.165	-0.001373	-0.07782	-0.082245	0.005646	-0.001221	0.009918	0.18875	0.001984	0.022736	-0.098419	0.13214	0.004272	0.049591	0.040741	0.04715	0.00824	-0.024109	0.066681	0.0354	0.019684	0.17029	-0.1358	0.11841	0.065613	0.012207	-0.03006	-0.079651	-0.014801	0.29785	-0.020752	-0.000153	-0.014954
58.166	0.000916	-0.067444	-0.042114	-0.00473	-0.003052	0.00885	0.17822	0.006714	0.014801	-0.17685	0.007324	0.008698	0.10162	0.016785	0.081635	0.007629	-0.032654	0.098419	0.073395	0.053406	0.089569	-0.17746	0.12161	0.061798	0.027924	-0.029907	0.067139	-0.001221	0.14435	0.012665	-0.001678	-0.014954
58.167	0.001678	-0.053406	-0.016174	-0.006866	-0.000458	-0.013733	0.16235	-0.000916	0.022888	-0.11368	-0.18585	0.006409	0.05722	0.058899	0.024719	0.003662	-0.050964	0.10376	0.14481	0.023804	-0.031433	-0.15854	0.13229	-0.015259	-0.01709	0.001831	0.21103	-0.00824	0.00946	0.039063	0	-0.007324
58.168	0.005341	-0.03891	-0.036316	0.011139	0.007629	-0.030212	0.1857	0.000153	0.006409	-0.06485	-0.090637	0.001831	-0.00473	0.085144	0.007477	0.006104	-0.036011	0.14267	0.20783	0.019989	0.018921	-0.1297	0.13947	-0.051575	0.016479	0.041656	0.2092	-0.007935	0.09491	0.056305	0.000305	-0.009918
58.169	-0.000458	-0.049133	-0.11169	0.011444	0.005646	-0.038757	0.18204	-0.001221	0.00885	0.022278	-0.14206	0.00885	-0.052948	0.058746	-0.029602	0.007477	-0.018158	0.053711	0.18021	0.044556	0.027008	-0.071869	0.16586	-0.13718	-0.048523	0.015411	0.18524	-0.010071	0.29602	0.059357	-0.000458	-0.009308
58.17	0.005035	-0.052948	-0.11536	0.010529	0.018921	-0.036163	0.15259	0.006104	0.018311	0.064545	-0.19592	0.001373	-0.082397	0.013275	0.018158	0.014801	0.005798	-0.020905	0.22842	0.056	0.061951	-0.1059	0.14175	-0.22125	-0.26032	0.002594	0.13763	-0.007019	0.20737	0.010986	-0.001068	-0.002136
58.171	0.004578	-0.060425	-0.10773	0.004272	0.026245	0.010681	0.17532	-0.000916	0.03006	-0.062561	-0.16556	0.003967	-0.14969	-0.035095	0.14786	-0.004883	-0.000763	-0.038147	0.25253	0.043182	0.099945	-0.29526	0.14816	-0.1915	-0.18066	0.003357	0.16724	-0.007324	-0.10208	-0.010681	-0.002441	-0.006104
58.172	0.002899	-0.078278	-0.083923	-0.005188	0.016327	-0.005188	0.17654	-0.000305	0.046539	-0.20279	-0.112	0.00473	-0.17349	-0.038605	0.086365	0.00412	-0.020447	-0.089722	0.028992	0.045166	0.10193	-0.27252	0.10651	-0.2681	-0.10346	-0.00351	0.18585	-0.006714	-0.27206	-0.021362	-0.002136	-0.003052
